HIERARCHY
ROOT Hips
{
  OFFSET 0 0 0
  CHANNELS 6 Xposition Yposition Zposition Zrotation Xrotation Yrotation
  JOINT Spine
  {
    OFFSET 0.00000000 0.00000000 0.00000000
    CHANNELS 3 Zrotation Xrotation Yrotation
    JOINT Spine1
    {
      OFFSET 0.19000000 0.00000000 0.00000000
      CHANNELS 3 Zrotation Xrotation Yrotation
      JOINT Neck
      {
        OFFSET 0.22500000 0.00600000 0.00000000
        CHANNELS 3 Zrotation Xrotation Yrotation
        JOINT Head
        {
          OFFSET 0.14000000 0.00030878 0.00000000
          CHANNELS 3 Zrotation Xrotation Yrotation
          End Site
          {
            OFFSET 0.17000000 0.00000000 0.00000000
          }
        }
      }
      JOINT LeftShoulder
      {
        OFFSET 0.19800000 0.03700000 0.04300000
        CHANNELS 3 Zrotation Xrotation Yrotation
        JOINT LeftArm
        {
          OFFSET 0.08000000 0.00000000 0.00000000
          CHANNELS 3 Zrotation Xrotation Yrotation
          JOINT LeftForeArm
          {
            OFFSET 0.15200000 0.00000000 0.00000000
            CHANNELS 3 Zrotation Xrotation Yrotation
            JOINT LeftHand
            {
              OFFSET 0.17800000 0.00000000 0.00000000
              CHANNELS 3 Zrotation Xrotation Yrotation
              End Site
              {
                OFFSET 0.07200000 0.00000000 0.00000000
              }
            }
          }
        }
      }
      JOINT RightShoulder
      {
        OFFSET 0.19800000 0.03700000 -0.04300000
        CHANNELS 3 Zrotation Xrotation Yrotation
        JOINT RightArm
        {
          OFFSET 0.08000000 0.00000000 0.00151654
          CHANNELS 3 Zrotation Xrotation Yrotation
          JOINT RightForeArm
          {
            OFFSET 0.15200000 0.00000000 0.00000000
            CHANNELS 3 Zrotation Xrotation Yrotation
            JOINT RightHand
            {
              OFFSET 0.17800000 0.00000000 0.00000000
              CHANNELS 3 Zrotation Xrotation Yrotation
              End Site
              {
                OFFSET 0.07200000 0.00000000 0.00000000
              }
            }
          }
        }
      }
    }
  }
  JOINT LeftUpLeg
  {
    OFFSET 0.05984250 -0.07666000 0.04788790
    CHANNELS 3 Zrotation Xrotation Yrotation
    JOINT LeftLeg
    {
      OFFSET 0.16000000 0.00000000 0.00000000
      CHANNELS 3 Zrotation Xrotation Yrotation
      JOINT LeftFoot
      {
        OFFSET 0.18000000 0.00000000 0.00000000
        CHANNELS 3 Zrotation Xrotation Yrotation
        End Site
        {
          OFFSET 0.00000000 -0.10800000 0.00000000
        }
      }
    }
  }
  JOINT RightUpLeg
  {
    OFFSET 0.05984250 -0.07665980 -0.04788790
    CHANNELS 3 Zrotation Xrotation Yrotation
    JOINT RightLeg
    {
      OFFSET 0.16000000 0.00000000 0.00000000
      CHANNELS 3 Zrotation Xrotation Yrotation
      JOINT RightFoot
      {
        OFFSET 0.18000000 0.00000000 0.00000000
        CHANNELS 3 Zrotation Xrotation Yrotation
        End Site
        {
          OFFSET 0.00000000 -0.10800000 0.00000000
        }
      }
    }
  }
  JOINT Tail
  {
    OFFSET 0.06836960 -0.00722574 0.00000000
    CHANNELS 3 Zrotation Xrotation Yrotation
    JOINT Tail1
    {
      OFFSET 0.12000000 0.00000000 0.00000000
      CHANNELS 3 Zrotation Xrotation Yrotation
      End Site
      {
        OFFSET 0.12000000 0.00000000 0.00000000
      }
    }
  }
}
MOTION
Frames:	14
Frame Time:	0.0166667
0.0000000 0.4593150 0.0000000 -1.93204 6.24428 0.21022 -173.919 0.406195 -14.8943 18.6488 2.66191 -1.71988 36.4319 -0.79399 -5.23127 -122.633 68.4445 128.957 -107.296 -37.649 -127.764 117.517 -1.28625 -130.399 -52.0856 -71.4301 72.8523 9.64337 4.22905 -26.6955 78.2965 -22.3492 34.1265 55.185 -23.0787 -17.5252 -104.845 2.40035 -17.2107 -20.818 -1.18296 10.0784 -136.182 -2.17223 -24.0092 62.1453 10.2708 18.3474 44.5011 -4.05945 -6.92454 -103.437 -4.94629 -2.84975 70.7839 -17.3728 -0.93159 49.0792 3.16274 1.24301 -12.7284 -9.73275 -57.9115 33.6382 -9.0783 -39.4775 
-0.0056637 0.4589210 0.0036434 -1.21415 6.25435 1.40235 -174.731 0.253118 -14.0421 18.7643 2.26257 -0.925692 36.4273 -0.246211 -6.44547 -123.708 68.1258 130.766 -107.01 -37.4464 -127.304 117.79 2.21876 -129.248 -58.3502 -69.4583 65.6242 7.42191 4.31893 -25.2517 78.3357 -22.1817 33.6796 55.0543 -24.87 -17.5357 -104.051 2.96473 -16.6011 -20.7497 -1.53034 10.7897 -136.091 -2.74598 -24.6298 61.1731 11.9912 19.935 44.8211 -4.5935 -7.58244 -103.822 -4.49374 -3.30741 70.8847 -15.66 -1.06279 50.394 2.85852 0.796406 -25.4375 -12.4374 -57.2478 33.8647 5.52564 -43.1618 
-0.0140773 0.4583190 0.0078217 0.48400 6.34800 3.12323 -177.047 0.248674 -13.1742 19.3832 1.83085 0.841636 36.1596 0.205081 -7.82809 -124.329 67.6639 132.7 -106.883 -37.3203 -127.159 117.303 6.95166 -127.854 -63.2096 -65.6987 58.3891 4.21987 4.45458 -25.085 78.3547 -21.9245 32.7845 55.2995 -26.3066 -16.952 -103.571 3.3448 -16.1738 -20.4169 -1.5668 10.7736 -137.245 -2.76671 -24.651 60.3894 13.5443 20.9878 45.6022 -5.13462 -8.24385 -106.118 -3.48503 -3.97318 71.9116 -12.443 -1.45901 51.7652 2.28626 0.072945 -39.3833 -15.3728 -55.4755 33.4711 23.4063 -44.2631 
-0.0233642 0.4586170 0.0125490 2.37573 6.49748 5.51619 -179.198 0.268566 -11.4641 19.861 1.40867 2.49928 35.9378 0.612846 -8.80196 -124.709 67.2785 134.409 -107.067 -37.702 -127.033 115.247 9.72524 -126.534 -68.7041 -59.5165 49.6259 1.14567 4.39391 -24.5189 78.4784 -21.6783 32.417 54.7887 -27.7952 -17.001 -102.908 0.745691 -15.927 -21.9289 -1.49727 10.6196 -138.319 -2.43937 -23.7859 59.2731 15.4052 21.0112 46.7012 -5.57452 -8.72187 -108.29 -2.18623 -4.83915 73.1122 -8.0783 -1.78606 51.7351 1.52619 -0.721049 -49.0643 -17.2943 -52.6818 30.5352 36.7255 -41.1824 
-0.0327963 0.4595990 0.0175473 4.02963 6.25288 8.11108 178.98 0.034394 -9.39969 20.6008 0.815959 3.64475 35.7548 0.928154 -8.89324 -125.137 67.3567 135.189 -107.483 -38.3998 -127.03 114.292 10.4815 -126.107 -73.5398 -52.2329 41.6323 -1.43762 4.11228 -22.5133 78.4306 -21.7842 32.6027 54.7106 -29.189 -18.0463 -101.554 0.342412 -15.5171 -22.9106 -1.68932 10.8658 -138.991 -2.53592 -21.6993 58.3299 16.5957 20.2005 47.7752 -5.83228 -8.97268 -110.166 -0.883725 -4.61269 74.2275 -4.95548 -2.25916 52.4826 1.0122 -1.31235 -54.5088 -18.4634 -48.4395 25.2148 44.3995 -34.8651 
-0.0417305 0.4603130 0.0218198 5.64872 6.30018 10.1494 176.886 0.153077 -8.0389 21.7569 0.707496 5.08095 35.4238 1.1903 -8.65911 -125.316 67.6882 135.869 -107.999 -38.81 -127.757 114.623 8.13119 -126.547 -77.6954 -48.3392 37.4939 -2.72073 3.80209 -20.6447 78.2223 -22.1719 33.1088 55.5107 -29.7877 -18.6011 -100.66 0.764653 -15.3479 -23.4295 -1.48946 10.0431 -139.729 -2.75268 -19.9933 57.9026 17.0395 19.4042 48.4854 -5.90694 -9.01567 -112.798 0.328707 -4.1974 75.5391 -2.53937 -2.7424 54.3647 0.671897 -1.79748 -56.1403 -19.6769 -42.6767 18.4536 46.0747 -26.5618 
-0.0499865 0.4618730 0.0265827 6.41145 6.52157 12.0009 175.46 0.507801 -6.73299 23.1508 0.977525 6.40869 34.7582 1.23662 -7.98524 -124.671 68.5033 136.374 -108.362 -38.6686 -128.968 112.28 6.66871 -126.021 -78.2816 -50.5545 39.8419 -2.0385 3.33481 -18.3878 77.9883 -22.7209 34.0663 55.5555 -30.4219 -19.0922 -99.7888 0.800382 -15.2529 -22.819 -1.2667 9.47626 -139.68 -3.21618 -19.1003 57.604 17.5863 19.1118 48.945 -5.99615 -9.08853 -114.585 1.15792 -3.86566 76.0756 -1.9347 -3.14417 56.5361 0.643118 -1.95605 -55.2405 -21.0724 -36.0443 12.2168 44.0419 -18.4498 
-0.0571976 0.4635190 0.0316708 6.52481 6.96503 13.2357 174.436 0.929823 -5.85851 24.6288 1.41463 7.35879 34.1435 1.65436 -7.37667 -125.021 69.4848 137.615 -108.375 -38.0938 -129.976 108.936 8.30692 -124.98 -74.3812 -52.5973 43.8431 -1.85281 3.49662 -18.8985 77.8362 -23.184 35.0434 55.44 -30.5506 -20.1737 -98.878 0.981525 -15.2677 -21.7096 -0.874287 8.47127 -139.148 -3.34696 -18.5648 57.9204 17.3002 18.61 48.5209 -5.9471 -9.07181 -116.049 1.55297 -3.8616 76.643 -3.75611 -3.51163 58.0832 0.945626 -1.72246 -52.6745 -22.9253 -28.6079 7.78365 39.4757 -11.8715 
-0.0636479 0.4644600 0.0372258 6.37646 7.65617 14.3447 173.641 1.10793 -4.522 25.847 1.57815 7.20828 33.9044 2.6855 -7.04835 -127.07 69.7317 139.718 -108.128 -37.5564 -130.234 109.233 8.08825 -126.172 -75.1187 -52.0894 42.7928 -3.00154 3.94792 -20.4291 77.684 -23.506 35.4887 55.4141 -30.7248 -21.7974 -97.6677 1.10419 -15.1844 -21.419 -0.802664 8.15729 -138.711 -3.10716 -18.2581 58.6668 17.3338 17.9885 48.0599 -5.91329 -9.08897 -117.643 1.8109 -4.17611 77.8026 -6.17237 -3.8301 58.059 1.25525 -1.39255 -49.476 -24.7665 -20.8847 5.44168 33.693 -7.21066 
-0.0692478 0.4651620 0.0424846 5.93244 8.19856 15.6071 173.276 1.15645 -3.01812 26.7923 1.60307 6.86644 33.8159 3.59918 -6.54773 -128.587 69.651 141.609 -107.786 -37.0439 -130.188 111.748 6.20088 -128.72 -79.4633 -49.6714 38.5712 -3.74265 3.78098 -19.3178 77.4929 -23.841 35.7942 55.2904 -30.9855 -23.2513 -96.4564 0.849096 -15.0334 -20.9087 -0.737688 7.9801 -138.282 -2.84822 -17.8809 59.6419 17.925 17.2976 48.0486 -5.94916 -9.16474 -119.196 1.98862 -4.54945 79.4464 -8.04633 -4.05092 56.7311 1.41332 -1.1147 -45.8345 -26.0906 -13.124 4.47722 27.839 -4.11564 
-0.0743266 0.4659770 0.0469826 5.18461 8.40951 16.7519 173.353 1.32872 -2.17524 27.5133 1.81354 7.26247 33.8417 4.44788 -5.95055 -129.715 69.9123 144.181 -107.649 -36.7015 -130.412 113.141 4.58725 -130.854 -82.4635 -47.1967 35.5482 -4.13461 3.41505 -17.3288 77.4517 -24.073 36.3945 55.123 -31.2669 -23.9231 -95.3818 0.55717 -14.8545 -20.3398 -0.679909 7.85805 -137.473 -2.84429 -17.5293 60.548 18.7016 16.6733 47.9059 -5.97722 -9.22554 -120.665 1.97386 -4.77768 81.4327 -9.54432 -4.17857 54.4781 1.47016 -0.860538 -41.8832 -26.996 -5.39819 4.42914 22.4996 -1.92843 
-0.0792535 0.4666150 0.0512454 4.42156 8.35049 17.9867 173.476 1.47381 -1.48422 28.2052 2.02303 8.04282 34.0742 4.93142 -5.30282 -130.061 70.2047 146.124 -107.654 -36.3637 -131.039 113.13 3.66603 -132.293 -83.9351 -45.7251 34.295 -4.21873 3.06677 -15.629 77.4426 -24.3175 37.1628 54.8132 -31.7557 -24.3692 -94.2555 0.203999 -14.5883 -19.8131 -0.623716 7.74344 -136.611 -2.9645 -17.0235 61.6112 19.2007 16.0189 47.9061 -5.9833 -9.25839 -122.046 1.88132 -4.59769 83.3654 -10.5989 -4.32071 51.4935 1.42728 -0.661028 -38.1349 -27.3904 1.93182 4.9616 18.0035 -0.484155 
-0.0839543 0.4671810 0.0553420 3.70448 8.15012 19.4787 173.643 1.41807 -0.504836 28.8117 2.00158 8.63737 34.5575 5.1176 -4.67649 -129.959 70.2479 146.757 -107.702 -36.0418 -131.768 113.561 2.96553 -133.635 -85.2715 -43.9022 32.853 -5.24656 3.01218 -15.1325 77.3517 -24.5873 37.649 54.2902 -32.3652 -24.9698 -92.9921 -0.223071 -14.2315 -19.2172 -0.574668 7.6836 -135.674 -3.05871 -16.4102 62.4997 19.5694 15.3911 47.9263 -6.00348 -9.3102 -123.452 1.79885 -4.38845 84.971 -10.7282 -4.37072 48.8476 1.26598 -0.617903 -34.6936 -27.2545 8.68301 5.58162 14.2926 0.411102 
-0.0886303 0.4677690 0.0592762 3.10302 7.93503 21.1122 173.724 1.25442 0.680954 29.4262 1.8536 9.03989 35.3427 5.11862 -4.10039 -129.628 70.0344 146.366 -107.822 -35.9581 -132.268 113.706 2.22497 -134.345 -86.1111 -41.9801 31.5764 -6.56141 3.05955 -14.924 77.2684 -24.7598 37.8458 53.942 -32.5528 -25.7435 -91.7448 -0.646861 -13.9459 -18.6289 -0.485226 7.51488 -134.725 -3.1553 -15.8014 63.0863 20.2033 14.7906 47.7622 -6.0308 -9.36655 -124.994 1.75492 -4.12551 86.2349 -10.1167 -4.36204 46.7268 1.03966 -0.713837 -31.6262 -26.7944 14.8721 6.16308 11.2127 0.937916 
